<svg width="25" height="24" viewBox="0 0 25 24" fill="none" xmlns="http://www.w3.org/2000/svg">
<g opacity="0.5">
<rect x="0.412994" width="23.7822" height="24" fill="white" fill-opacity="0.01"/>
<path fill-rule="evenodd" clip-rule="evenodd" d="M9.3313 4C9.3313 3.44769 9.77499 3 10.3222 3H14.2859C14.8331 3 15.2768 3.44769 15.2768 4C15.2768 4.55231 14.8331 5 14.2859 5H13.295V6.06189C17.2056 6.55396 20.2315 9.92041 20.2315 14C20.2315 18.4183 16.6823 22 12.3041 22C11.9685 22 11.6378 21.9789 11.3131 21.9381V19.9171C11.6354 19.9716 11.9665 20 12.3041 20C15.5877 20 18.2496 17.3137 18.2496 14C18.2496 10.6863 15.5877 8 12.3041 8C11.9665 8 11.6354 8.02838 11.3131 8.08295V7V6.06189V5H10.3222C9.77499 5 9.3313 4.55231 9.3313 4ZM8.34037 8C7.79314 8 7.34945 8.44769 7.34945 9C7.34945 9.55231 7.79314 10 8.34037 10H9.3313C9.87853 10 10.3222 9.55231 10.3222 9C10.3222 8.44769 9.87853 8 9.3313 8H8.34037ZM7.34945 20C7.34945 19.4477 7.79314 19 8.34037 19H9.3313C9.87853 19 10.3222 19.4477 10.3222 20C10.3222 20.5523 9.87853 21 9.3313 21H8.34037C7.79314 21 7.34945 20.5523 7.34945 20ZM5.3676 11C4.82037 11 4.37668 11.4477 4.37668 12C4.37668 12.5523 4.82037 13 5.3676 13H7.34945C7.89668 13 8.34037 12.5523 8.34037 12C8.34037 11.4477 7.89668 11 7.34945 11H5.3676ZM4.37668 16C4.37668 15.4477 4.82037 15 5.3676 15H7.34945C7.89668 15 8.34037 15.4477 8.34037 16C8.34037 16.5523 7.89668 17 7.34945 17H5.3676C4.82037 17 4.37668 16.5523 4.37668 16Z" fill="#535374"/>
<path d="M12.3041 10.1055C12.8518 10.1055 13.295 10.5532 13.295 11.1055V13.9875L14.7291 14.7109C15.2188 14.958 15.4162 15.5586 15.1723 16.0527C14.9265 16.5466 14.3324 16.7468 13.8427 16.5L12.1357 15.6382C11.6305 15.384 11.3131 14.8645 11.3131 14.2964V11.1055C11.3131 10.5532 11.7563 10.1055 12.3041 10.1055Z" fill="#535374"/>
</g>
</svg>
