<svg width="25" height="24" viewBox="0 0 25 24" fill="none" xmlns="http://www.w3.org/2000/svg">
<g opacity="0.5">
<rect x="0.78215" width="23.7821" height="24" fill="white" fill-opacity="0.01"/>
<path fill-rule="evenodd" clip-rule="evenodd" d="M15.646 4.99994L11.1868 7.59802V6.18896C8.62244 6.85504 6.72769 9.20416 6.72769 11.9999C6.72769 14.2527 7.95787 16.2154 9.77727 17.2413L7.85252 18.3513C5.96369 16.8891 4.74584 14.588 4.74584 11.9999C4.74584 8.09436 7.51902 4.84241 11.1868 4.14032V2.40186L15.646 4.99994ZM15.5692 6.75854C17.3886 7.78448 18.6188 9.74719 18.6188 11.9999C18.6188 14.7957 16.724 17.1448 14.1596 17.8109V16.4019L9.70046 18.9999L14.1596 21.598V19.8596C17.8274 19.1575 20.6006 15.9055 20.6006 11.9999C20.6006 9.41187 19.3828 7.11078 17.4939 5.64856L15.5692 6.75854Z" fill="#535374"/>
</g>
</svg>
