<svg width="24" height="24" viewBox="0 0 24 24" fill="none" xmlns="http://www.w3.org/2000/svg">
<g opacity="0.5">
<rect x="0.0438843" width="23.7821" height="24" fill="white" fill-opacity="0.01"/>
<path fill-rule="evenodd" clip-rule="evenodd" d="M6.04388 2C4.93927 2 4.04388 2.89545 4.04388 4V6C4.04388 7.10455 4.93927 8 6.04388 8H6.11713C6.33319 9.42279 7.01154 10.5038 7.93744 11.337C9.0202 12.3115 10.4218 12.9282 11.6725 13.4285C11.9244 13.5292 12.1688 13.6249 12.4051 13.7175C13.4105 14.1111 14.27 14.4477 14.9464 14.8761C15.5126 15.2347 15.8356 15.5858 15.9698 16.0013C14.8995 16.0403 14.0439 16.9202 14.0439 18V20C14.0439 21.1046 14.9393 22 16.0439 22H18.0439C19.1485 22 20.0439 21.1046 20.0439 20V18C20.0439 16.8954 19.1485 16 18.0439 16H18.012C17.8399 14.6842 16.9938 13.8054 16.0164 13.1864C15.1607 12.6445 14.0709 12.2194 13.0562 11.8236L13.0532 11.8224L13.0193 11.8093C12.8139 11.7291 12.6116 11.6501 12.4152 11.5715C11.166 11.0718 10.0676 10.5635 9.27533 9.85046C8.73785 9.36676 8.33392 8.78247 8.15131 7.99719C9.20599 7.94135 10.0439 7.06848 10.0439 6V4C10.0439 2.89545 9.1485 2 8.04388 2H6.04388ZM8.04388 4H6.04388V6H8.04388V4ZM6.04388 16C4.93927 16 4.04388 16.8954 4.04388 18V20C4.04388 21.1046 4.93927 22 6.04388 22H8.04388C9.1485 22 10.0439 21.1046 10.0439 20V18C10.0439 16.8954 9.1485 16 8.04388 16V14C8.04388 13.6412 7.81805 13.5105 7.47382 13.3112C7.09357 13.091 6.56866 12.7872 6.04388 12V16ZM8.04388 18H6.04388V20H8.04388V18ZM16.0439 18H18.0439V20H16.0439V18Z" fill="#535374"/>
</g>
</svg>
